<svg width="50" height="36" viewBox="0 0 50 36" fill="none" xmlns="http://www.w3.org/2000/svg">
<path d="M19.5718 34.9179C19.4182 34.6699 19.4182 34.6404 19.6782 34.0557C20.3104 32.6562 20.2454 31.2212 19.4891 29.5973C18.7506 28.0206 18.6029 26.6446 19.0106 25.1978C19.3769 23.881 19.885 23.3554 20.3458 23.8101C20.5703 24.0463 20.5644 24.1054 20.1154 25.3396C19.9221 25.9652 19.8549 26.623 19.9178 27.2748C19.9807 27.9266 20.1723 28.5594 20.4817 29.1366C21.3679 30.9023 21.4211 32.9574 20.6294 34.5695C20.3931 35.0301 20.3222 35.1069 20.0504 35.1364C19.8082 35.16 19.6959 35.1128 19.5777 34.912L19.5718 34.9179ZM24.6233 35.0183C24.3988 34.7939 24.446 34.5636 24.7415 33.8372C24.9358 33.3486 25.036 32.8277 25.0369 32.3019C25.0959 31.2803 25.0014 30.8551 24.4283 29.5441C23.8966 28.3276 23.7784 27.8198 23.7902 26.7568C23.7902 25.3986 24.322 23.7983 24.8064 23.6743C25.1609 23.5857 25.4563 23.7806 25.4563 24.0876C25.4563 24.2294 25.3382 24.6368 25.1905 24.9911C24.9541 25.5699 24.9246 25.7529 24.9246 26.8041C24.9246 27.9261 24.9364 28.0087 25.2496 28.7056C26.0767 30.5716 26.0767 30.548 26.118 31.7409C26.1771 33.0105 26.0235 33.7723 25.5745 34.6049C25.3559 35.0183 25.2614 35.1069 25.0073 35.1364C24.8301 35.1541 24.6528 35.1069 24.5938 35.0183H24.6233ZM29.5861 35.0065C29.4148 34.8293 29.468 34.5577 29.8224 33.5892C30.0031 33.1063 30.0874 32.5928 30.0706 32.0775C30.0706 31.1444 29.9583 30.6897 29.462 29.5854C29.2524 29.1278 29.0747 28.6563 28.9303 28.1741C28.7346 27.2591 28.7366 26.3128 28.9362 25.3986C29.1017 24.7254 29.5034 23.8278 29.6925 23.7038C29.8102 23.6342 29.9506 23.6137 30.0833 23.6469C30.2161 23.68 30.3303 23.7641 30.4014 23.881C30.5551 24.1172 30.5491 24.1585 30.2419 24.9262C29.9625 25.5876 29.8344 26.3031 29.8671 27.0203C29.8998 27.7376 30.0925 28.4384 30.431 29.0717C30.9249 29.9762 31.1734 30.9941 31.1518 32.0243C31.187 32.6452 31.1007 33.2671 30.8977 33.855C30.5846 34.8057 30.3365 35.1541 29.9642 35.1541C29.8106 35.1541 29.6334 35.0951 29.5684 35.0065H29.5861ZM0.287705 20.6035C0.174577 20.4864 0.0897049 20.345 0.0395634 20.1902C-0.00354877 17.2023 -0.0114268 14.214 0.0159308 11.2259L0.0395634 2.48612L0.36451 1.83654C0.712192 1.08533 1.33655 0.497241 2.10741 0.194874C2.63914 0 2.7573 0 25.0014 0C47.2514 0 47.3696 0 47.9013 0.194874C48.6692 0.498932 49.2923 1.08381 49.6442 1.83064L49.9633 2.48022L49.9928 11.2259C50.0105 16.0328 49.9928 20.0661 49.9692 20.1902C49.919 20.345 49.8342 20.4864 49.721 20.6035C49.5261 20.7984 49.2897 20.7984 25.0014 20.7984C0.718997 20.7984 0.482673 20.763 0.287705 20.5681V20.6035ZM2.45008 16.8655C2.47962 14.6156 2.49735 14.4797 2.71595 14.0309C2.88204 13.715 3.12607 13.4467 3.42492 13.2514L3.88576 12.9385H46.188L46.6429 13.2514C46.933 13.4524 47.1685 13.7223 47.3282 14.0368C47.5468 14.4797 47.5646 14.6156 47.5882 16.8714L47.6236 19.2335H48.3917V11.0842C48.3917 2.28534 48.4035 2.55108 47.8777 2.07275L47.6414 1.84835L47.5823 2.52746C47.4818 3.56679 47.0742 4.21046 46.3002 4.53525C45.9812 4.67108 43.6829 4.68879 25.031 4.68879C6.37308 4.71832 4.08072 4.71241 3.74987 4.57659C2.98181 4.25771 2.56824 3.61403 2.48553 2.5747L2.42645 1.9015L2.19012 2.1259C1.65839 2.59832 1.67021 2.3444 1.67021 11.1315V19.2807H2.43826L2.45008 16.8655ZM22.2659 11.6865C21.9233 11.5153 21.8819 11.0133 22.1891 10.8008C22.3782 10.6649 22.7859 10.6413 25.0014 10.6413C27.9259 10.6413 28.0736 10.6708 28.0146 11.2614C27.9614 11.7751 27.7782 11.8106 25.0014 11.8106C23.1935 11.8106 22.4432 11.7751 22.2659 11.6925V11.6865ZM41.172 11.4799C40.9947 11.2082 41.0892 10.913 41.426 10.7358C41.8691 10.4996 42.3477 11.2377 41.9814 11.598C41.7805 11.8047 41.3374 11.7397 41.1661 11.4799H41.172ZM43.7184 11.4976C43.4052 11.0252 43.9311 10.476 44.4096 10.7889C44.6637 10.9543 44.7287 11.3972 44.5278 11.598C44.3269 11.7987 43.8779 11.7397 43.7184 11.4976ZM46.4007 18.7965V18.3595H3.60807V19.2335H46.4007V18.7965ZM46.4007 16.7474V16.21H3.60807V17.2848H46.4007V16.7474ZM46.4007 14.8163C46.4007 14.5624 46.1466 14.2258 45.8453 14.0723C45.6917 13.9955 40.0022 13.9601 25.0014 13.9601C10.0007 13.9601 4.32296 13.9955 4.16344 14.0723C3.86803 14.2258 3.61398 14.5624 3.60807 14.8163V15.0348H46.4007V14.8163ZM46.1053 3.32467C46.3711 3.05893 46.4007 2.98807 46.4007 2.30306V1.55309H3.60217V2.29715C3.60217 2.98217 3.61989 3.05303 3.88576 3.31877L4.18116 3.60813H45.798L46.1053 3.32467Z" fill="#FC8229" fill-opacity="0.5"/>
</svg>
