<svg width="15" height="15" viewBox="0 0 15 15" fill="none" xmlns="http://www.w3.org/2000/svg">
<path opacity="0.4" d="M7.36887 8.88125L5.32512 10.925C5.10012 10.725 4.88137 10.5188 4.66887 10.3063C4.02512 9.65625 3.44387 8.975 2.92512 8.2625C2.41262 7.55 2.00012 6.8375 1.70012 6.13125C1.40012 5.41875 1.25012 4.7375 1.25012 4.0875C1.25012 3.6625 1.32512 3.25625 1.47512 2.88125C1.62512 2.5 1.86262 2.15 2.19387 1.8375C2.59387 1.44375 3.03137 1.25 3.49387 1.25C3.66887 1.25 3.84387 1.2875 4.00012 1.3625C4.16262 1.4375 4.30637 1.55 4.41887 1.7125L5.86887 3.75625C5.98137 3.9125 6.06262 4.05625 6.11887 4.19375C6.17512 4.325 6.20637 4.45625 6.20637 4.575C6.20637 4.725 6.16262 4.875 6.07512 5.01875C5.99387 5.1625 5.87512 5.3125 5.72512 5.4625L5.25012 5.95625C5.18137 6.025 5.15012 6.10625 5.15012 6.20625C5.15012 6.25625 5.15637 6.3 5.16887 6.35C5.18762 6.4 5.20637 6.4375 5.21887 6.475C5.33137 6.68125 5.52512 6.95 5.80012 7.275C6.08137 7.6 6.38137 7.93125 6.70637 8.2625C6.93137 8.48125 7.15012 8.69375 7.36887 8.88125Z" fill="#FC8229"/>
<path d="M13.7315 11.4562C13.7315 11.6312 13.7002 11.8124 13.6377 11.9874C13.619 12.0374 13.6002 12.0874 13.5752 12.1374C13.469 12.3624 13.3315 12.5749 13.1502 12.7749C12.844 13.1124 12.5065 13.3562 12.1252 13.5124C12.119 13.5124 12.1127 13.5187 12.1065 13.5187C11.7377 13.6687 11.3377 13.7499 10.9065 13.7499C10.269 13.7499 9.58774 13.5999 8.86899 13.2937C8.15024 12.9874 7.43149 12.5749 6.71899 12.0562C6.47524 11.8749 6.23149 11.6937 6.00024 11.4999L8.04399 9.45615C8.21899 9.5874 8.37524 9.6874 8.50649 9.75615C8.53774 9.76865 8.57524 9.7874 8.61899 9.80615C8.66899 9.8249 8.71899 9.83115 8.77524 9.83115C8.88149 9.83115 8.96274 9.79365 9.03149 9.7249L9.50649 9.25615C9.66274 9.0999 9.81274 8.98115 9.95649 8.90615C10.1002 8.81865 10.244 8.7749 10.4002 8.7749C10.519 8.7749 10.644 8.7999 10.7815 8.85615C10.919 8.9124 11.0627 8.99365 11.219 9.0999L13.2877 10.5687C13.4502 10.6812 13.5627 10.8124 13.6315 10.9687C13.694 11.1249 13.7315 11.2812 13.7315 11.4562Z" fill="#FC8229"/>
</svg>
