<svg width="50" height="50" viewBox="0 0 50 50" fill="none" xmlns="http://www.w3.org/2000/svg">
<path d="M34.8957 24.9999H42.4623C42.8173 25.0001 43.1664 25.091 43.4764 25.2639C43.7863 25.4369 44.047 25.6862 44.2336 25.9882C44.4202 26.2902 44.5265 26.6349 44.5424 26.9895C44.5584 27.3441 44.4835 27.6969 44.3248 28.0145L40.0873 36.4916C39.9267 36.8128 39.6857 37.087 39.3877 37.2876C39.0898 37.4882 38.7451 37.6084 38.387 37.6365C38.029 37.6646 37.6697 37.5996 37.3442 37.4479C37.0186 37.2962 36.7378 37.063 36.529 36.7707L32.104 30.5832M4.1665 39.5832H11.9998C12.7764 39.5886 13.5389 39.3769 14.2015 38.972C14.8641 38.5671 15.4004 37.985 15.7498 37.2916L18.7498 31.2499M4.1665 43.7499V35.4166M14.5832 18.7499H14.604M35.6373 18.8603C36.1311 19.1075 36.5066 19.5406 36.6812 20.0644C36.8558 20.5883 36.8153 21.16 36.5686 21.6541L30.0978 34.5936C29.9754 34.8384 29.806 35.0566 29.5992 35.2359C29.3924 35.4152 29.1524 35.552 28.8928 35.6385C28.6331 35.7249 28.359 35.7594 28.086 35.7399C27.8131 35.7204 27.5466 35.6474 27.3019 35.5249L7.52067 25.6249C6.08386 24.9012 4.99224 23.6378 4.48467 22.1111C3.9771 20.5845 4.09492 18.919 4.81234 17.4791L7.68734 11.6666C8.04567 10.9524 8.54117 10.3159 9.14554 9.79329C9.74991 9.27069 10.4513 8.87226 11.2097 8.62076C11.968 8.36926 12.7685 8.26962 13.5654 8.32752C14.3623 8.38542 15.14 8.59973 15.854 8.95822L35.6373 18.8603Z" stroke="#FC8229" stroke-opacity="0.5" stroke-width="4.16667" stroke-linecap="round" stroke-linejoin="round"/>
</svg>
