<svg width="42" height="42" viewBox="0 0 42 42" fill="none" xmlns="http://www.w3.org/2000/svg">
<rect width="41.6667" height="41.6667" rx="11.1111" fill="#4F4F4F"/>
<path fill-rule="evenodd" clip-rule="evenodd" d="M23.1044 32.9553V21.898H26.8868L27.4543 17.5875H23.1044V14.8359C23.1044 13.5883 23.4562 12.7381 25.2822 12.7381L27.6074 12.7371V8.88165C27.2053 8.8304 25.825 8.71289 24.2185 8.71289C20.8638 8.71289 18.5671 10.7213 18.5671 14.409V17.5875H14.7732V21.898H18.5671V32.9553H23.1044Z" fill="#1B1B1B"/>
<mask id="mask0_248_11955" style="mask-type:luminance" maskUnits="userSpaceOnUse" x="14" y="8" width="14" height="25">
<path fill-rule="evenodd" clip-rule="evenodd" d="M23.1044 32.9553V21.898H26.8868L27.4543 17.5875H23.1044V14.8359C23.1044 13.5883 23.4562 12.7381 25.2822 12.7381L27.6074 12.7371V8.88165C27.2053 8.8304 25.825 8.71289 24.2185 8.71289C20.8638 8.71289 18.5671 10.7213 18.5671 14.409V17.5875H14.7732V21.898H18.5671V32.9553H23.1044Z" fill="white"/>
</mask>
<g mask="url(#mask0_248_11955)">
</g>
</svg>
