<svg width="50" height="50" viewBox="0 0 50 50" fill="none" xmlns="http://www.w3.org/2000/svg">
<path d="M39.0625 17.1875C39.0625 15.9514 38.6959 14.743 38.0092 13.7152C37.3224 12.6874 36.3463 11.8863 35.2043 11.4133C34.0622 10.9402 32.8056 10.8164 31.5932 11.0576C30.3808 11.2987 29.2672 11.894 28.3931 12.7681C27.519 13.6422 26.9237 14.7558 26.6826 15.9682C26.4414 17.1806 26.5652 18.4372 27.0383 19.5793C27.5113 20.7213 28.3124 21.6974 29.3402 22.3842C30.368 23.0709 31.5764 23.4375 32.8125 23.4375C34.4701 23.4375 36.0598 22.779 37.2319 21.6069C38.404 20.4348 39.0625 18.8451 39.0625 17.1875ZM32.8125 20.3125C32.1944 20.3125 31.5902 20.1292 31.0763 19.7858C30.5624 19.4425 30.1619 18.9544 29.9254 18.3834C29.6889 17.8124 29.627 17.184 29.7475 16.5778C29.8681 15.9717 30.1658 15.4148 30.6028 14.9778C31.0398 14.5408 31.5967 14.2431 32.2028 14.1225C32.809 14.002 33.4374 14.0639 34.0084 14.3004C34.5794 14.5369 35.0675 14.9374 35.4108 15.4513C35.7542 15.9652 35.9375 16.5694 35.9375 17.1875C35.9375 18.0163 35.6083 18.8112 35.0222 19.3972C34.4362 19.9833 33.6413 20.3125 32.8125 20.3125ZM34.6523 40.3555L40.8203 26.7715C42.7869 25.1249 44.1993 22.9131 44.866 20.4363C45.5326 17.9596 45.4212 15.3377 44.5468 12.9264C43.6725 10.5151 42.0775 8.43114 39.9783 6.95728C37.8792 5.48341 35.3774 4.69098 32.8125 4.6875C32.7261 4.68786 32.6399 4.69505 32.5547 4.70898L5.73633 9.17969C5.00672 9.30127 4.34389 9.67771 3.86574 10.2421C3.38758 10.8064 3.12511 11.522 3.125 12.2617V22.1133C3.12511 22.853 3.38758 23.5686 3.86574 24.1329C4.34389 24.6973 5.00672 25.0737 5.73633 25.1953L25 28.4062V39.0625C25 39.8913 25.3292 40.6862 25.9153 41.2722C26.5013 41.8583 27.2962 42.1875 28.125 42.1875C28.125 44.2595 28.9481 46.2466 30.4132 47.7118C31.8784 49.1769 33.8655 50 35.9375 50H39.0625C39.4769 50 39.8743 49.8354 40.1674 49.5424C40.4604 49.2493 40.625 48.8519 40.625 48.4375C40.625 48.0231 40.4604 47.6257 40.1674 47.3326C39.8743 47.0396 39.4769 46.875 39.0625 46.875H35.9375C34.6943 46.875 33.502 46.3811 32.6229 45.5021C31.7439 44.623 31.25 43.4307 31.25 42.1875H31.8066C32.4068 42.1876 32.9943 42.0149 33.499 41.6901C34.0036 41.3652 34.404 40.9019 34.6523 40.3555ZM6.25 12.2617L32.9375 7.8125C35.4239 7.8125 37.8085 8.80022 39.5666 10.5584C41.3248 12.3165 42.3125 14.7011 42.3125 17.1875C42.3125 19.6739 41.3248 22.0585 39.5666 23.8166C37.8085 25.5748 35.4239 26.5625 32.9375 26.5625L6.25 22.1152V12.2617ZM32.5547 29.666C32.6399 29.68 32.7261 29.6871 32.8125 29.6875C33.9903 29.6872 35.162 29.5202 36.293 29.1914L31.8008 39.0625H28.125V28.9277L32.5547 29.666Z" fill="#FC8229" fill-opacity="0.5"/>
</svg>
