<svg width="42" height="42" viewBox="0 0 42 42" fill="none" xmlns="http://www.w3.org/2000/svg">
<rect x="0.222168" width="41.6667" height="41.6667" rx="11.1111" fill="#4F4F4F"/>
<path fill-rule="evenodd" clip-rule="evenodd" d="M14.9449 7.19727H27.1651C31.3153 7.19727 34.6917 10.5736 34.6916 14.7236V26.9437C34.6916 31.0936 31.3153 34.47 27.1651 34.47H14.9449C10.795 34.47 7.41882 31.0938 7.41882 26.9437V14.7236C7.41882 10.5736 10.795 7.19727 14.9449 7.19727ZM27.165 32.0499C29.9808 32.0499 32.2717 29.7592 32.2717 26.9434H32.2715V14.7233C32.2715 11.9076 29.9806 9.61675 27.1648 9.61675H14.9447C12.129 9.61675 9.83831 11.9076 9.83831 14.7233V26.9434C9.83831 29.7592 12.129 32.0501 14.9447 32.0499H27.165ZM13.9127 20.8335C13.9127 16.8948 17.117 13.6905 21.0556 13.6905C24.9942 13.6905 28.1985 16.8948 28.1985 20.8335C28.1985 24.7721 24.9942 27.9762 21.0556 27.9762C17.117 27.9762 13.9127 24.7721 13.9127 20.8335ZM16.3718 20.8337C16.3718 23.4161 18.4728 25.5168 21.0552 25.5168C23.6375 25.5168 25.7385 23.4161 25.7385 20.8337C25.7385 18.2512 23.6376 16.1502 21.0552 16.1502C18.4727 16.1502 16.3718 18.2512 16.3718 20.8337Z" fill="#1B1B1B"/>
<mask id="mask0_248_11966" style="mask-type:luminance" maskUnits="userSpaceOnUse" x="7" y="7" width="28" height="28">
<path fill-rule="evenodd" clip-rule="evenodd" d="M14.9449 7.19727H27.1651C31.3153 7.19727 34.6917 10.5736 34.6916 14.7236V26.9437C34.6916 31.0936 31.3153 34.47 27.1651 34.47H14.9449C10.795 34.47 7.41882 31.0938 7.41882 26.9437V14.7236C7.41882 10.5736 10.795 7.19727 14.9449 7.19727ZM27.165 32.0499C29.9808 32.0499 32.2717 29.7592 32.2717 26.9434H32.2715V14.7233C32.2715 11.9076 29.9806 9.61675 27.1648 9.61675H14.9447C12.129 9.61675 9.83831 11.9076 9.83831 14.7233V26.9434C9.83831 29.7592 12.129 32.0501 14.9447 32.0499H27.165ZM13.9127 20.8335C13.9127 16.8948 17.117 13.6905 21.0556 13.6905C24.9942 13.6905 28.1985 16.8948 28.1985 20.8335C28.1985 24.7721 24.9942 27.9762 21.0556 27.9762C17.117 27.9762 13.9127 24.7721 13.9127 20.8335ZM16.3718 20.8337C16.3718 23.4161 18.4728 25.5168 21.0552 25.5168C23.6375 25.5168 25.7385 23.4161 25.7385 20.8337C25.7385 18.2512 23.6376 16.1502 21.0552 16.1502C18.4727 16.1502 16.3718 18.2512 16.3718 20.8337Z" fill="white"/>
</mask>
<g mask="url(#mask0_248_11966)">
</g>
</svg>
