<svg width="42" height="42" viewBox="0 0 42 42" fill="none" xmlns="http://www.w3.org/2000/svg">
<rect x="0.333252" width="41.6667" height="41.6667" rx="11.1111" fill="#4F4F4F"/>
<path d="M31.1659 8.33398H11.1659C9.79089 8.33398 8.66589 9.45898 8.66589 10.834V30.834C8.66589 32.209 9.79089 33.334 11.1659 33.334H31.1659C32.5409 33.334 33.6659 32.209 33.6659 30.834V10.834C33.6659 9.45898 32.5409 8.33398 31.1659 8.33398ZM16.1659 29.584H12.4159V18.334H16.1659V29.584ZM14.2909 16.209C13.0409 16.209 12.0409 15.209 12.0409 13.959C12.0409 12.709 13.0409 11.709 14.2909 11.709C15.5409 11.709 16.5409 12.709 16.5409 13.959C16.5409 15.209 15.5409 16.209 14.2909 16.209ZM29.9159 29.584H26.1659V22.959C26.1659 21.959 25.2909 21.084 24.2909 21.084C23.2909 21.084 22.4159 21.959 22.4159 22.959V29.584H18.6659V18.334H22.4159V19.834C23.0409 18.834 24.4159 18.084 25.5409 18.084C27.9159 18.084 29.9159 20.084 29.9159 22.459V29.584Z" fill="#1B1B1B"/>
</svg>
