<svg width="50" height="51" viewBox="0 0 50 51" fill="none" xmlns="http://www.w3.org/2000/svg">
<path fill-rule="evenodd" clip-rule="evenodd" d="M35.1565 7.96675C34.058 7.9662 32.9746 8.22302 31.9933 8.71663C31.012 9.21024 30.16 9.92691 29.5056 10.8092C28.8511 11.6915 28.4125 12.7148 28.2249 13.7971C28.0373 14.8795 28.1059 15.9907 28.4252 17.0418L28.8315 18.3855L27.8408 19.3793L8.29708 38.9199C7.90754 39.3094 7.6887 39.8377 7.6887 40.3886C7.6887 40.9395 7.90754 41.4678 8.29708 41.8574C8.68662 42.2469 9.21494 42.4658 9.76583 42.4658C10.3167 42.4658 10.845 42.2469 11.2346 41.8574L30.7752 22.3105L31.769 21.3168L33.1127 21.723C34.4183 22.1207 35.8114 22.1298 37.122 21.7493C38.4327 21.3687 39.6043 20.6149 40.4939 19.5799C41.3834 18.5449 41.9526 17.2733 42.1318 15.9203C42.3111 14.5674 42.0927 13.1915 41.5033 11.9605L36.8158 16.6511C36.5997 16.8751 36.3412 17.0538 36.0553 17.1767C35.7694 17.2997 35.4619 17.3645 35.1507 17.3673C34.8395 17.3702 34.5309 17.311 34.2428 17.1933C33.9547 17.0756 33.6929 16.9017 33.4727 16.6817C33.2526 16.4618 33.0784 16.2002 32.9604 15.9122C32.8425 15.6242 32.783 15.3156 32.7856 15.0044C32.7881 14.6932 32.8526 14.3857 32.9753 14.0996C33.098 13.8136 33.2765 13.5549 33.5002 13.3386L38.1877 8.65113C37.2416 8.1977 36.2056 7.96586 35.1565 7.96675ZM23.4377 14.998C23.4379 12.5952 24.1767 10.2505 25.5541 8.28163C26.9314 6.31275 28.8807 4.81485 31.1378 3.99086C33.3949 3.16688 35.8508 3.05664 38.1727 3.67509C40.4945 4.29353 42.5702 5.61076 44.1184 7.44832C45.6666 9.28588 46.6125 11.5549 46.828 13.9481C47.0435 16.3412 46.5181 18.7427 45.3231 20.8273C44.128 22.9119 42.3211 24.5787 40.1471 25.602C37.973 26.6253 35.537 26.9555 33.169 26.548L31.4408 28.2793L34.3752 31.2168L35.844 29.748L37.5002 28.0918L39.1565 29.748L45.0158 35.6074C45.6596 36.2317 46.1727 36.9779 46.5254 37.8024C46.878 38.6269 47.0632 39.5133 47.07 40.4101C47.0769 41.3068 46.9053 42.1959 46.5653 43.0258C46.2253 43.8556 45.7237 44.6095 45.0895 45.2436C44.4554 45.8777 43.7015 46.3794 42.8717 46.7194C42.0419 47.0594 41.1527 47.2309 40.256 47.2241C39.3593 47.2172 38.4728 47.0321 37.6483 46.6794C36.8238 46.3268 36.0777 45.8136 35.4533 45.1699L29.594 39.3105L27.9377 37.6543L29.594 35.998L31.0627 34.5293L28.1252 31.5918L14.5471 45.1699C13.9227 45.8136 13.1766 46.3268 12.3521 46.6794C11.5276 47.0321 10.6411 47.2172 9.74441 47.2241C8.84766 47.2309 7.95851 47.0594 7.12869 46.7194C6.29888 46.3794 5.54498 45.8777 4.91087 45.2436C4.27675 44.6095 3.7751 43.8556 3.43509 43.0258C3.09508 42.1959 2.92351 41.3068 2.93037 40.4101C2.93723 39.5133 3.12238 38.6269 3.47505 37.8024C3.82771 36.9779 4.34084 36.2317 4.98458 35.6074L18.5596 22.0293L10.9377 14.4043L9.00958 16.3324L7.4252 13.9543L4.30021 9.26675L3.23458 7.66676L4.59396 6.31051L6.15646 4.74801L7.51271 3.38863L9.1127 4.45426L13.8002 7.57925L16.1783 9.16363L14.2533 11.0918L21.8752 18.7168L23.6065 16.9855C23.4974 16.3286 23.4409 15.6639 23.4377 14.998ZM37.5002 34.7168L41.7033 38.9199C42.0929 39.3094 42.3117 39.8377 42.3117 40.3886C42.3117 40.9395 42.0929 41.4678 41.7033 41.8574C41.3138 42.2469 40.7855 42.4658 40.2346 42.4658C39.6837 42.4658 39.1554 42.2469 38.7658 41.8574L34.5658 37.6543L37.5002 34.7168Z" fill="#FC8229" fill-opacity="0.5"/>
</svg>
