<svg width="28" height="46" viewBox="0 0 28 46" fill="none" xmlns="http://www.w3.org/2000/svg">
<path d="M7.74984 10.4998H18.1665M7.74984 10.4998V15.7082H18.1665V10.4998M7.74984 10.4998V7.37484C7.74984 4.24984 10.8748 2.1665 13.9998 2.1665H25.4582C25.4582 2.1665 18.1665 4.24984 18.1665 8.4165V10.4998M2.5415 17.7915C2.5415 17.239 2.761 16.7091 3.1517 16.3184C3.5424 15.9277 4.0723 15.7082 4.62484 15.7082H21.2915C21.844 15.7082 22.3739 15.9277 22.7646 16.3184C23.1553 16.7091 23.3748 17.239 23.3748 17.7915V37.5832C23.3748 37.5832 23.3748 43.8332 17.1248 43.8332H8.7915C2.5415 43.8332 2.5415 37.5832 2.5415 37.5832V17.7915Z" stroke="#FC8229" stroke-opacity="0.5" stroke-width="4.16667" stroke-linecap="round" stroke-linejoin="round"/>
</svg>
