<svg width="50" height="50" viewBox="0 0 50 50" fill="none" xmlns="http://www.w3.org/2000/svg">
<path d="M26.5625 37.7875V31.25H23.4375V37.7875C22.395 38.1561 21.5163 38.8814 20.9568 39.8351C20.3973 40.7889 20.193 41.9097 20.38 42.9996C20.567 44.0894 21.1332 45.0781 21.9787 45.7908C22.8241 46.5035 23.8942 46.8944 25 46.8944C26.1058 46.8944 27.1759 46.5035 28.0214 45.7908C28.8668 45.0781 29.433 44.0894 29.62 42.9996C29.807 41.9097 29.6027 40.7889 29.0432 39.8351C28.4837 38.8814 27.605 38.1561 26.5625 37.7875Z" fill="#FC8229" fill-opacity="0.5"/>
<path d="M40.625 18.75C39.2431 18.7541 37.9017 19.2165 36.8108 20.0648C35.7199 20.9131 34.9413 22.0993 34.5969 23.4375H15.4031C15.0228 21.9646 14.1184 20.681 12.8593 19.8272C11.6003 18.9734 10.0731 18.6082 8.56404 18.7998C7.05495 18.9915 5.66758 19.727 4.66197 20.8684C3.65636 22.0098 3.10156 23.4788 3.10156 25C3.10156 26.5212 3.65636 27.9902 4.66197 29.1316C5.66758 30.273 7.05495 31.0085 8.56404 31.2002C10.0731 31.3919 11.6003 31.0266 12.8593 30.1728C14.1184 29.3191 15.0228 28.0354 15.4031 26.5625H34.5969C34.8911 27.6915 35.496 28.7154 36.3429 29.5179C37.1898 30.3204 38.2447 30.8693 39.3879 31.1024C40.5311 31.3354 41.7167 31.2433 42.8102 30.8364C43.9036 30.4295 44.8611 29.7241 45.5738 28.8004C46.2865 27.8767 46.726 26.7717 46.8423 25.6108C46.9585 24.4499 46.7469 23.2797 46.2315 22.233C45.7162 21.1863 44.9176 20.305 43.9265 19.6894C42.9355 19.0737 41.7917 18.7483 40.625 18.75ZM9.37497 28.125C8.75691 28.125 8.15272 27.9417 7.63882 27.5984C7.12491 27.255 6.72437 26.7669 6.48785 26.1959C6.25133 25.6249 6.18944 24.9965 6.31002 24.3904C6.4306 23.7842 6.72823 23.2273 7.16527 22.7903C7.6023 22.3533 8.15913 22.0556 8.76532 21.9351C9.37151 21.8145 9.99984 21.8764 10.5709 22.1129C11.1419 22.3494 11.6299 22.75 11.9733 23.2639C12.3167 23.7778 12.5 24.3819 12.5 25C12.4987 25.8284 12.1691 26.6226 11.5833 27.2084C10.9975 27.7941 10.2034 28.1238 9.37497 28.125ZM40.625 28.125C40.0069 28.125 39.4027 27.9417 38.8888 27.5984C38.3749 27.255 37.9744 26.7669 37.7379 26.1959C37.5013 25.6249 37.4394 24.9965 37.56 24.3904C37.6806 23.7842 37.9782 23.2273 38.4153 22.7903C38.8523 22.3533 39.4091 22.0556 40.0153 21.9351C40.6215 21.8145 41.2498 21.8764 41.8209 22.1129C42.3919 22.3494 42.8799 22.75 43.2233 23.2639C43.5667 23.7778 43.75 24.3819 43.75 25C43.7487 25.8284 43.4191 26.6226 42.8333 27.2084C42.2475 27.7941 41.4534 28.1238 40.625 28.125Z" fill="#FC8229" fill-opacity="0.5"/>
<path d="M29.6875 7.81237C29.691 6.95219 29.4578 6.10761 29.0134 5.37112C28.569 4.63464 27.9305 4.03464 27.1678 3.63684C26.4051 3.23904 25.5477 3.05877 24.6894 3.11578C23.8311 3.17278 23.005 3.46486 22.3016 3.96004C21.5982 4.45521 21.0447 5.13438 20.7016 5.92318C20.3584 6.71197 20.239 7.57997 20.3563 8.43213C20.4736 9.28428 20.8231 10.0877 21.3665 10.7545C21.91 11.4213 22.6265 11.9256 23.4375 12.2124V18.7499H26.5625V12.2124C27.4745 11.8923 28.2649 11.2973 28.8246 10.5092C29.3842 9.7212 29.6857 8.77895 29.6875 7.81237Z" fill="#FC8229" fill-opacity="0.5"/>
</svg>
