<svg width="16" height="17" viewBox="0 0 16 17" fill="none" xmlns="http://www.w3.org/2000/svg">
<path d="M15.3671 8.55342C15.3671 8.79465 15.2713 9.02601 15.1007 9.19659C14.9301 9.36716 14.6988 9.46299 14.4575 9.46299H8.69688V15.2236C8.69688 15.4649 8.60105 15.6962 8.43047 15.8668C8.25989 16.0374 8.02854 16.1332 7.78731 16.1332C7.54607 16.1332 7.31472 16.0374 7.14414 15.8668C6.97356 15.6962 6.87773 15.4649 6.87773 15.2236V9.46299H1.11709C0.87586 9.46299 0.644506 9.36716 0.473928 9.19659C0.303349 9.02601 0.20752 8.79465 0.20752 8.55342C0.20752 8.31219 0.303349 8.08083 0.473928 7.91025C0.644506 7.73968 0.87586 7.64385 1.11709 7.64385H6.87773V1.88321C6.87773 1.64197 6.97356 1.41062 7.14414 1.24004C7.31472 1.06946 7.54607 0.973633 7.78731 0.973633C8.02854 0.973633 8.25989 1.06946 8.43047 1.24004C8.60105 1.41062 8.69688 1.64197 8.69688 1.88321V7.64385H14.4575C14.6988 7.64385 14.9301 7.73968 15.1007 7.91025C15.2713 8.08083 15.3671 8.31219 15.3671 8.55342Z" fill="#8F8F8F"/>
</svg>
