<svg width="50" height="50" viewBox="0 0 50 50" fill="none" xmlns="http://www.w3.org/2000/svg">
<path d="M18.7498 43.7498V45.8332H14.5832V43.7498C13.4781 43.7498 12.4183 43.3108 11.6369 42.5294C10.8555 41.748 10.4165 40.6882 10.4165 39.5832V8.33317C10.4165 7.2281 10.8555 6.16829 11.6369 5.38689C12.4183 4.60549 13.4781 4.1665 14.5832 4.1665H35.4165C36.5216 4.1665 37.5814 4.60549 38.3628 5.38689C39.1442 6.16829 39.5832 7.2281 39.5832 8.33317V39.5832C39.5832 40.6882 39.1442 41.748 38.3628 42.5294C37.5814 43.3108 36.5216 43.7498 35.4165 43.7498V45.8332H31.2498V43.7498H18.7498ZM14.5832 8.33317V18.7498H35.4165V8.33317H14.5832ZM14.5832 39.5832H35.4165V22.9165H14.5832V39.5832ZM16.6665 24.9998H20.8332V31.2498H16.6665V24.9998ZM16.6665 12.4998H20.8332V16.6665H16.6665V12.4998Z" fill="#FC8229" fill-opacity="0.5"/>
</svg>
