<svg width="15" height="15" viewBox="0 0 15 15" fill="none" xmlns="http://www.w3.org/2000/svg">
<path opacity="0.4" d="M10.5342 12.0131H4.70085C2.95085 12.0131 1.78418 11.1381 1.78418 9.09644V5.0131C1.78418 2.97144 2.95085 2.09644 4.70085 2.09644H10.5342C12.2842 2.09644 13.4508 2.97144 13.4508 5.0131V9.09644C13.4508 11.1381 12.2842 12.0131 10.5342 12.0131Z" fill="#FC8229"/>
<path d="M7.61746 7.56217C7.12746 7.56217 6.63163 7.4105 6.25247 7.10134L4.42663 5.643C4.23996 5.49134 4.20497 5.21717 4.35663 5.0305C4.5083 4.84384 4.78247 4.80884 4.96914 4.96051L6.79496 6.41884C7.2383 6.77467 7.99079 6.77467 8.43413 6.41884L10.26 4.96051C10.4466 4.80884 10.7266 4.838 10.8725 5.0305C11.0241 5.21717 10.995 5.49717 10.8025 5.643L8.97663 7.10134C8.6033 7.4105 8.10746 7.56217 7.61746 7.56217Z" fill="#FC8229"/>
</svg>
