<svg width="48" height="40" viewBox="0 0 48 40" fill="none" xmlns="http://www.w3.org/2000/svg">
<path d="M46.231 36H30V40H46.397C46.7584 40.0178 47.115 39.9108 47.4069 39.6968C47.6988 39.4829 47.9082 39.175 48 38.825V37.855C48 37.855 47.988 36 46.231 36ZM43.986 35.21C45.0515 35.2084 46.0727 34.7839 46.8254 34.0297C47.5781 33.2756 48.0005 32.2535 48 31.188C48 28.961 46.2 27.165 43.986 27.165C43.4588 27.1659 42.9369 27.2707 42.4501 27.4734C41.9634 27.6761 41.5214 27.9728 41.1494 28.3464C40.7773 28.72 40.4826 29.1633 40.2819 29.6508C40.0813 30.1384 39.9787 30.6608 39.98 31.188C39.98 33.407 41.775 35.21 43.986 35.21ZM35.532 35C37.638 35 39.332 33.516 39.332 31.413C39.331 29.314 37.631 28.213 35.541 28.197L30 28.899V35H35.532ZM17.523 8.933C19.982 8.933 21.971 6.933 21.971 4.466C21.971 1.999 19.982 0 17.523 0C15.066 0 13.074 1.999 13.074 4.466C13.074 6.933 15.066 8.933 17.523 8.933ZM12.981 23.389L12.941 23.331L10.925 18.637L10.922 28H16.947L18.263 26.6L14.694 25.226C13.848 24.908 13.247 24.188 12.981 23.389ZM14.258 22.968C14.453 23.406 14.814 23.761 15.268 23.924L22.145 26.473C22.3545 26.5652 22.5802 26.6151 22.809 26.6198C23.0379 26.6246 23.2654 26.5841 23.4786 26.5006C23.6917 26.4172 23.8863 26.2925 24.0511 26.1336C24.2159 25.9748 24.3478 25.7849 24.439 25.575C24.6252 25.1496 24.6354 24.6677 24.4676 24.2347C24.2997 23.8017 23.9673 23.4528 23.543 23.264L17.198 20.868L15.238 16.167L16.516 15.691L18.177 19.719L23 21.507V16.585L25.56 18.108L26.836 24.536C26.9095 24.7535 27.0253 24.9543 27.1769 25.1267C27.3284 25.2991 27.5127 25.4398 27.7189 25.5406C27.9252 25.6414 28.1493 25.7003 28.3785 25.714C28.6077 25.7276 28.8373 25.6956 29.054 25.62C29.4905 25.4647 29.8481 25.1436 30.0494 24.7263C30.2506 24.309 30.2792 23.8292 30.129 23.391L28.699 17.2C28.6053 16.8573 28.4092 16.5513 28.137 16.323C27.404 15.511 23.697 11.366 23.433 11.089C23.046 10.701 22.161 10 20.489 10H14.489C11.079 10 10.423 13.48 11.12 15.25L14.258 22.968ZM29 29H1.967C0.983 29 0 29.555 0 30.776V40H29V29Z" fill="#FC8229" fill-opacity="0.5"/>
</svg>
