<svg width="50" height="50" viewBox="0 0 50 50" fill="none" xmlns="http://www.w3.org/2000/svg">
<path d="M30.896 23.2707C32.4557 24.8364 33.3314 26.9564 33.3314 29.1665C33.3314 31.3766 32.4557 33.4966 30.896 35.0623C29.3302 36.6221 27.2102 37.4978 25.0002 37.4978C22.7901 37.4978 20.6701 36.6221 19.1043 35.0623L30.896 23.2707ZM12.5002 4.1665H37.5002C38.6052 4.1665 39.665 4.60549 40.4464 5.38689C41.2278 6.16829 41.6668 7.2281 41.6668 8.33317V41.6665C41.6668 42.7716 41.2278 43.8314 40.4464 44.6128C39.665 45.3942 38.6052 45.8332 37.5002 45.8332H12.5002C11.3951 45.8332 10.3353 45.3942 9.55388 44.6128C8.77248 43.8314 8.3335 42.7716 8.3335 41.6665V8.33317C8.3335 7.2281 8.77248 6.16829 9.55388 5.38689C10.3353 4.60549 11.3951 4.1665 12.5002 4.1665ZM14.5835 8.33317C14.031 8.33317 13.5011 8.55266 13.1104 8.94337C12.7197 9.33407 12.5002 9.86397 12.5002 10.4165C12.5002 10.969 12.7197 11.4989 13.1104 11.8896C13.5011 12.2803 14.031 12.4998 14.5835 12.4998C15.136 12.4998 15.6659 12.2803 16.0566 11.8896C16.4473 11.4989 16.6668 10.969 16.6668 10.4165C16.6668 9.86397 16.4473 9.33407 16.0566 8.94337C15.6659 8.55266 15.136 8.33317 14.5835 8.33317ZM20.8335 8.33317C20.281 8.33317 19.7511 8.55266 19.3604 8.94337C18.9697 9.33407 18.7502 9.86397 18.7502 10.4165C18.7502 10.969 18.9697 11.4989 19.3604 11.8896C19.7511 12.2803 20.281 12.4998 20.8335 12.4998C21.386 12.4998 21.9159 12.2803 22.3066 11.8896C22.6973 11.4989 22.9168 10.969 22.9168 10.4165C22.9168 9.86397 22.6973 9.33407 22.3066 8.94337C21.9159 8.55266 21.386 8.33317 20.8335 8.33317ZM25.0002 16.6665C21.685 16.6665 18.5055 17.9835 16.1613 20.3277C13.8171 22.6719 12.5002 25.8513 12.5002 29.1665C12.5002 32.4817 13.8171 35.6611 16.1613 38.0053C18.5055 40.3495 21.685 41.6665 25.0002 41.6665C28.3154 41.6665 31.4948 40.3495 33.839 38.0053C36.1832 35.6611 37.5002 32.4817 37.5002 29.1665C37.5002 25.8513 36.1832 22.6719 33.839 20.3277C31.4948 17.9835 28.3154 16.6665 25.0002 16.6665Z" fill="#FC8229" fill-opacity="0.5"/>
</svg>
