<svg width="43" height="42" viewBox="0 0 43 42" fill="none" xmlns="http://www.w3.org/2000/svg">
<rect x="0.444336" width="41.666" height="41.666" rx="11.1109" fill="#4F4F4F"/>
<path d="M18.4996 25.001L25.7078 20.8344L18.4996 16.6678V25.001ZM34.5549 14.1261C34.7355 14.7789 34.8605 15.6539 34.9438 16.765C35.041 17.8761 35.0827 18.8344 35.0827 19.6677L35.166 20.8344C35.166 23.876 34.9438 26.1121 34.5549 27.5426C34.2077 28.7926 33.4022 29.5981 32.1522 29.9453C31.4994 30.1259 30.305 30.2509 28.4717 30.3342C26.6661 30.4314 25.0134 30.4731 23.4856 30.4731L21.2773 30.5564C15.458 30.5564 11.833 30.3342 10.4025 29.9453C9.15253 29.5981 8.34699 28.7926 7.99977 27.5426C7.81922 26.8898 7.69422 26.0149 7.61089 24.9038C7.51367 23.7927 7.472 22.8343 7.472 22.001L7.38867 20.8344C7.38867 17.7928 7.61089 15.5567 7.99977 14.1261C8.34699 12.8762 9.15253 12.0706 10.4025 11.7234C11.0553 11.5429 12.2497 11.4179 14.083 11.3345C15.8885 11.2373 17.5413 11.1956 19.069 11.1956L21.2773 11.1123C27.0967 11.1123 30.7216 11.3345 32.1522 11.7234C33.4022 12.0706 34.2077 12.8762 34.5549 14.1261Z" fill="#1B1B1B"/>
</svg>
